<svg  viewBox="0 0 611 116" fill="none" xmlns="http://www.w3.org/2000/svg">
<path d="M26.354 113.391C26.042 113.391 25.691 113.274 25.301 113.04C24.989 112.884 24.833 112.65 24.833 112.338C24.833 111.87 24.989 111.519 25.301 111.285C25.691 111.051 26.042 110.895 26.354 110.817C31.97 108.633 36.689 105.825 40.511 102.393C44.333 98.961 47.648 95.022 50.456 90.576C53.342 86.13 55.994 81.333 58.412 76.185C58.1 76.341 57.359 76.692 56.189 77.238C55.019 77.706 53.732 78.252 52.328 78.876C51.002 79.5 49.832 80.046 48.818 80.514C47.804 80.982 47.219 81.216 47.063 81.216C46.517 81.216 46.088 80.943 45.776 80.397C45.464 79.851 45.308 79.305 45.308 78.759C45.308 78.057 45.932 77.316 47.18 76.536C48.506 75.756 50.066 75.015 51.86 74.313C53.732 73.611 55.448 72.987 57.008 72.441C58.646 71.895 59.816 71.505 60.518 71.271C65.198 59.571 67.538 47.325 67.538 34.533C67.538 31.335 66.758 28.722 65.198 26.694C63.716 24.666 61.259 23.652 57.827 23.652C54.239 23.652 50.378 24.471 46.244 26.109C42.188 27.747 38.132 29.97 34.076 32.778C30.098 35.586 26.432 38.784 23.078 42.372C19.802 45.96 17.15 49.704 15.122 53.604C13.172 57.426 12.197 61.17 12.197 64.836C12.197 67.722 13.016 69.828 14.654 71.154C16.37 72.48 18.593 73.143 21.323 73.143C24.755 73.143 27.992 72.714 31.034 71.856C34.076 70.92 36.806 69.906 39.224 68.814C41.72 67.644 43.748 66.63 45.308 65.772C46.868 64.836 47.882 64.368 48.35 64.368C48.818 64.368 49.052 64.524 49.052 64.836C48.974 64.992 48.857 65.148 48.701 65.304C48.623 65.382 48.506 65.499 48.35 65.655C44.762 68.541 40.628 70.998 35.948 73.026C31.268 75.054 26.588 76.068 21.908 76.068C19.412 76.068 17.072 75.717 14.888 75.015C12.704 74.313 10.949 73.143 9.623 71.505C8.297 69.867 7.634 67.644 7.634 64.836C7.634 60.858 8.765 56.802 11.027 52.668C13.289 48.456 16.292 44.4 20.036 40.5C23.858 36.6 27.992 33.09 32.438 29.97C36.962 26.85 41.525 24.393 46.127 22.599C50.729 20.727 54.941 19.791 58.763 19.791C63.365 19.791 66.602 21.195 68.474 24.003C70.424 26.811 71.399 30.321 71.399 34.533C71.399 40.617 70.775 46.662 69.527 52.668C68.357 58.596 66.641 64.368 64.379 69.984C74.987 67.098 85.829 65.109 96.905 64.017C97.217 62.925 97.802 61.014 98.66 58.284C99.518 55.554 100.571 52.512 101.819 49.158C103.067 45.804 104.432 42.567 105.914 39.447C107.396 36.249 108.878 33.636 110.36 31.608C111.92 29.58 113.363 28.566 114.689 28.566C115.235 28.566 115.82 28.683 116.444 28.917C117.146 29.151 117.536 29.619 117.614 30.321L117.263 31.257C116.561 32.427 115.742 33.597 114.806 34.767C113.948 35.937 113.129 37.107 112.349 38.277C109.931 42.255 107.747 46.389 105.797 50.679C103.847 54.969 102.17 59.337 100.766 63.783H102.989C103.691 63.783 104.354 63.822 104.978 63.9C105.602 63.978 105.953 64.173 106.031 64.485C105.641 65.031 104.705 65.382 103.223 65.538C101.819 65.694 100.766 65.811 100.064 65.889C98.894 69.789 97.958 73.767 97.256 77.823C96.632 81.879 96.32 85.974 96.32 90.108C96.32 91.746 96.437 93.423 96.671 95.139C96.905 96.855 97.451 98.337 98.309 99.585C99.167 100.911 100.493 101.886 102.287 102.51C102.677 102.588 103.145 102.744 103.691 102.978C104.237 103.212 104.549 103.602 104.627 104.148C104.471 104.46 104.237 104.616 103.925 104.616C103.613 104.694 103.301 104.733 102.989 104.733C100.493 104.733 98.543 103.953 97.139 102.393C95.735 100.911 94.76 99.078 94.214 96.894C93.746 94.71 93.512 92.643 93.512 90.693C93.512 86.559 93.785 82.464 94.331 78.408C94.877 74.352 95.54 70.296 96.32 66.24C90.548 66.786 84.815 67.8 79.121 69.282C73.505 70.686 67.967 72.441 62.507 74.547C60.089 79.851 57.281 85.116 54.083 90.342C50.885 95.568 47.102 100.209 42.734 104.265C38.366 108.321 33.179 111.324 27.173 113.274C27.017 113.352 26.744 113.391 26.354 113.391ZM115.624 102.276C114.298 102.276 113.323 101.613 112.699 100.287C112.075 99.039 111.685 97.596 111.529 95.958C111.373 94.32 111.295 93.072 111.295 92.214C111.295 89.25 111.568 86.13 112.114 82.854C112.66 79.5 113.362 76.38 114.22 73.494C114.61 72.168 115.312 70.257 116.326 67.761C117.34 65.187 118.549 62.574 119.953 59.922C121.435 57.27 122.995 55.047 124.633 53.253C126.349 51.381 128.065 50.445 129.781 50.445C131.107 50.445 132.55 51.03 134.11 52.2C135.67 53.37 136.45 54.657 136.45 56.061C136.45 56.607 136.255 57.075 135.865 57.465C135.943 57.387 136.138 57.348 136.45 57.348C137.932 57.348 138.673 58.128 138.673 59.688C138.673 61.482 138.4 63.627 137.854 66.123C137.386 68.619 136.879 71.271 136.333 74.079C135.787 76.809 135.514 79.461 135.514 82.035C135.514 82.971 135.592 84.102 135.748 85.428C135.904 86.676 136.255 87.807 136.801 88.821C137.425 89.835 138.4 90.342 139.726 90.342C140.974 90.342 142.3 89.679 143.704 88.353C145.108 87.027 146.473 85.389 147.799 83.439C149.125 81.489 150.373 79.539 151.543 77.589C152.713 75.639 153.688 74.001 154.468 72.675C155.326 71.349 155.911 70.686 156.223 70.686C156.769 70.686 157.042 71.037 157.042 71.739C157.042 72.675 156.613 74.04 155.755 75.834C154.975 77.55 153.922 79.461 152.596 81.567C151.27 83.595 149.788 85.584 148.15 87.534C146.59 89.406 144.991 90.966 143.353 92.214C141.793 93.384 140.389 93.969 139.141 93.969C137.113 93.969 135.553 93.15 134.461 91.512C133.447 89.796 132.745 87.768 132.355 85.428C132.043 83.088 131.887 80.904 131.887 78.876C131.887 78.174 131.887 77.511 131.887 76.887C131.887 76.263 131.926 75.717 132.004 75.249C131.536 76.341 130.873 77.979 130.015 80.163C129.157 82.269 128.143 84.609 126.973 87.183C125.881 89.679 124.672 92.097 123.346 94.437C122.098 96.699 120.811 98.571 119.485 100.053C118.159 101.535 116.872 102.276 115.624 102.276ZM116.56 97.362C117.574 97.362 118.705 96.426 119.953 94.554C121.201 92.682 122.488 90.303 123.814 87.417C125.218 84.453 126.544 81.294 127.792 77.94C129.04 74.586 130.171 71.427 131.185 68.463C132.277 65.421 133.174 62.925 133.876 60.975C134.578 58.947 135.046 57.855 135.28 57.699L134.578 57.816C134.032 57.816 133.603 57.543 133.291 56.997C132.979 56.373 132.589 55.788 132.121 55.242C131.653 54.696 130.873 54.423 129.781 54.423C128.377 54.423 127.012 55.242 125.686 56.88C124.36 58.518 123.073 60.507 121.825 62.847C120.655 65.109 119.641 67.332 118.783 69.516C118.003 71.7 117.457 73.338 117.145 74.43C115.585 79.812 114.805 85.35 114.805 91.044C114.805 91.356 114.805 92.058 114.805 93.15C114.883 94.164 115.039 95.139 115.273 96.075C115.585 96.933 116.014 97.362 116.56 97.362ZM161.478 53.019C160.932 53.019 160.425 52.902 159.957 52.668C159.489 52.356 159.255 51.927 159.255 51.381C159.255 50.757 159.528 49.821 160.074 48.573C160.62 47.247 161.322 45.921 162.18 44.595C163.038 43.269 163.935 42.138 164.871 41.202C165.885 40.266 166.782 39.798 167.562 39.798C168.186 39.798 168.498 40.188 168.498 40.968C168.498 41.904 167.991 42.645 166.977 43.191C166.353 43.581 165.807 44.322 165.339 45.414C164.949 46.506 164.598 47.637 164.286 48.807C164.052 49.977 163.818 50.913 163.584 51.615C163.35 52.551 162.648 53.019 161.478 53.019ZM159.138 97.83C157.344 97.83 156.018 97.089 155.16 95.607C154.302 94.047 153.756 92.292 153.522 90.342C153.288 88.314 153.171 86.676 153.171 85.428C153.171 84.648 153.249 83.205 153.405 81.099C153.639 78.993 153.912 76.653 154.224 74.079C154.614 71.427 155.043 68.853 155.511 66.357C156.057 63.861 156.681 61.794 157.383 60.156C158.085 58.518 158.826 57.699 159.606 57.699C160.23 57.699 160.776 57.894 161.244 58.284C161.712 58.674 161.946 59.181 161.946 59.805C161.946 60.741 161.673 62.223 161.127 64.251C160.581 66.279 159.918 68.58 159.138 71.154C158.436 73.728 157.773 76.341 157.149 78.993C156.603 81.567 156.33 83.907 156.33 86.013C156.33 86.559 156.369 87.495 156.447 88.821C156.603 90.147 156.876 91.395 157.266 92.565C157.656 93.657 158.28 94.203 159.138 94.203C160.308 94.203 161.595 93.345 162.999 91.629C164.403 89.913 165.807 87.807 167.211 85.311C168.693 82.737 170.058 80.202 171.306 77.706C172.554 75.132 173.607 72.987 174.465 71.271C175.323 69.555 175.908 68.697 176.22 68.697C176.61 68.697 176.844 68.853 176.922 69.165C177.078 69.399 177.156 69.672 177.156 69.984C177.156 70.998 176.727 72.636 175.869 74.898C175.011 77.082 173.88 79.5 172.476 82.152C171.072 84.726 169.551 87.222 167.913 89.64C166.275 91.98 164.676 93.93 163.116 95.49C161.556 97.05 160.23 97.83 159.138 97.83ZM184.705 97.011C182.989 97.011 181.624 96.426 180.61 95.256C179.596 94.008 178.816 92.487 178.27 90.693C177.802 88.821 177.49 86.988 177.334 85.194C177.178 83.322 177.1 81.801 177.1 80.631C177.1 76.419 177.256 72.168 177.568 67.878C177.958 63.588 178.348 59.337 178.738 55.125C177.412 55.671 176.125 56.295 174.877 56.997C173.707 57.699 172.615 58.596 171.601 59.688C171.445 59.844 171.25 60 171.016 60.156C170.86 60.312 170.626 60.39 170.314 60.39C169.768 60.39 169.222 60.117 168.676 59.571C168.208 59.025 167.974 58.479 167.974 57.933C167.974 57.231 168.442 56.529 169.378 55.827C170.314 55.047 171.445 54.345 172.771 53.721C174.175 53.019 175.462 52.434 176.632 51.966C177.88 51.498 178.738 51.186 179.206 51.03C179.284 50.406 179.44 49.236 179.674 47.52C179.986 45.726 180.337 43.737 180.727 41.553C181.117 39.291 181.546 37.146 182.014 35.118C182.56 33.012 183.106 31.296 183.652 29.97C184.198 28.566 184.744 27.864 185.29 27.864C185.836 27.864 186.382 28.059 186.928 28.449C187.474 28.839 187.747 29.307 187.747 29.853C187.747 30.087 187.552 31.062 187.162 32.778C186.772 34.494 186.265 36.522 185.641 38.862C185.095 41.124 184.588 43.269 184.12 45.297C183.73 47.325 183.457 48.729 183.301 49.509C186.733 48.495 190.009 47.676 193.129 47.052C196.327 46.428 199.681 46.116 203.191 46.116C203.503 46.116 204.088 46.116 204.946 46.116C205.804 46.116 206.623 46.155 207.403 46.233C208.261 46.311 208.69 46.467 208.69 46.701C207.91 47.013 207.052 47.247 206.116 47.403C205.258 47.559 204.4 47.676 203.542 47.754C199.798 48.066 196.249 48.768 192.895 49.86C189.619 50.952 186.265 52.161 182.833 53.487C182.287 57.933 181.819 62.457 181.429 67.059C181.039 71.583 180.844 76.068 180.844 80.514C180.844 81.372 180.883 82.542 180.961 84.024C181.039 85.428 181.195 86.871 181.429 88.353C181.663 89.757 182.053 90.966 182.599 91.98C183.145 92.994 183.925 93.501 184.939 93.501C186.265 93.501 187.63 92.76 189.034 91.278C190.438 89.718 191.842 87.846 193.246 85.662C194.65 83.4 195.937 81.138 197.107 78.876C198.277 76.614 199.291 74.703 200.149 73.143C201.085 71.583 201.709 70.764 202.021 70.686V71.037C202.021 72.207 201.631 73.845 200.851 75.951C200.071 78.057 199.018 80.319 197.692 82.737C196.444 85.077 195.04 87.339 193.48 89.523C191.998 91.707 190.477 93.501 188.917 94.905C187.435 96.309 186.031 97.011 184.705 97.011ZM205.918 98.181C204.982 98.181 204.28 97.518 203.812 96.192C203.344 94.788 202.993 93.15 202.759 91.278C202.525 89.328 202.369 87.534 202.291 85.896C202.291 84.18 202.291 83.049 202.291 82.503C202.291 77.745 202.486 72.675 202.876 67.293C203.344 61.833 204.046 56.334 204.982 50.796C205.996 45.18 207.322 39.837 208.96 34.767C210.598 29.619 212.626 24.978 215.044 20.844C215.59 19.908 216.409 19.44 217.501 19.44C217.969 19.44 218.398 19.596 218.788 19.908C219.178 20.142 219.373 20.532 219.373 21.078C219.373 21.546 219.217 22.092 218.905 22.716C216.643 27.942 214.498 33.051 212.47 38.043C210.442 42.957 208.804 48.222 207.556 53.838C205.918 61.326 205.099 68.931 205.099 76.653C205.099 80.397 205.333 84.102 205.801 87.768C206.191 86.52 206.971 84.609 208.141 82.035C209.311 79.461 210.676 76.614 212.236 73.494C213.874 70.374 215.59 67.371 217.384 64.485C219.256 61.599 221.05 59.259 222.766 57.465C224.482 55.593 226.003 54.657 227.329 54.657C228.733 54.657 229.63 55.359 230.02 56.763C230.488 58.089 230.722 59.298 230.722 60.39C230.722 63.51 230.488 66.63 230.02 69.75C229.552 72.87 229.318 76.029 229.318 79.227C229.318 79.539 229.357 80.397 229.435 81.801C229.513 83.127 229.669 84.414 229.903 85.662C230.215 86.91 230.605 87.534 231.073 87.534C231.775 87.534 232.477 87.105 233.179 86.247C233.881 85.311 234.505 84.297 235.051 83.205C235.675 82.035 236.221 81.021 236.689 80.163C237.157 79.227 237.508 78.759 237.742 78.759C237.976 78.759 238.132 78.954 238.21 79.344C238.288 79.656 238.327 79.89 238.327 80.046C238.327 81.06 237.937 82.464 237.157 84.258C236.455 85.974 235.519 87.573 234.349 89.055C233.179 90.459 232.009 91.161 230.839 91.161C229.747 91.161 228.85 90.693 228.148 89.757C227.524 88.821 227.056 87.69 226.744 86.364C226.432 85.038 226.198 83.751 226.042 82.503C225.964 81.255 225.925 80.28 225.925 79.578C225.925 76.77 226.042 73.962 226.276 71.154C226.588 68.346 226.744 65.538 226.744 62.73V61.794C226.744 61.326 226.705 60.897 226.627 60.507C226.549 60.039 226.354 59.805 226.042 59.805C225.574 59.805 224.911 60.351 224.053 61.443C223.195 62.457 222.61 63.159 222.298 63.549C220.192 66.201 218.164 69.36 216.214 73.026C214.342 76.692 212.704 80.475 211.3 84.375C209.896 88.197 208.882 91.785 208.258 95.139C208.18 95.763 207.946 96.426 207.556 97.128C207.244 97.83 206.698 98.181 205.918 98.181ZM249.432 99C247.326 99 245.688 98.064 244.518 96.192C243.426 94.32 242.685 92.058 242.295 89.406C241.905 86.676 241.71 84.141 241.71 81.801C241.71 80.709 241.71 79.734 241.71 78.876C241.788 77.94 241.866 77.16 241.944 76.536H241.593C240.657 76.536 240.189 76.185 240.189 75.483C240.345 75.093 240.618 74.781 241.008 74.547C241.476 74.235 241.905 74.04 242.295 73.962C242.685 70.53 243.426 67.02 244.518 63.432C245.61 59.844 247.092 56.607 248.964 53.721V53.019C248.964 52.239 249.432 51.771 250.368 51.615C250.758 51.225 251.148 50.796 251.538 50.328C252.006 49.782 252.513 49.509 253.059 49.509C253.683 49.509 254.151 49.782 254.463 50.328C254.853 50.796 254.892 51.303 254.58 51.849C256.062 52.161 257.388 52.785 258.558 53.721C259.806 54.579 260.43 55.866 260.43 57.582C260.43 59.844 259.572 62.184 257.856 64.602C256.218 66.942 254.229 69.087 251.889 71.037C249.627 72.909 247.56 74.313 245.688 75.249C245.454 77.121 245.298 79.032 245.22 80.982C245.22 82.854 245.22 84.726 245.22 86.598C245.22 87.534 245.259 88.704 245.337 90.108C245.493 91.512 245.844 92.76 246.39 93.852C247.014 94.944 248.028 95.49 249.432 95.49C250.914 95.49 252.357 94.827 253.761 93.501C255.243 92.175 256.647 90.498 257.973 88.47C259.377 86.364 260.664 84.18 261.834 81.918C263.004 79.656 264.018 77.511 264.876 75.483C265.734 73.455 266.358 71.895 266.748 70.803C266.904 70.413 267.099 70.062 267.333 69.75C267.567 69.36 267.918 69.165 268.386 69.165C269.01 69.165 269.322 69.555 269.322 70.335C269.322 71.583 268.893 73.377 268.035 75.717C267.177 77.979 266.007 80.436 264.525 83.088C263.121 85.74 261.522 88.275 259.728 90.693C258.012 93.111 256.257 95.1 254.463 96.66C252.669 98.22 250.992 99 249.432 99ZM246.273 71.622C247.755 70.686 249.237 69.516 250.719 68.112C252.201 66.708 253.449 65.109 254.463 63.315C255.477 61.521 255.984 59.727 255.984 57.933C255.984 56.997 255.516 56.334 254.58 55.944C253.644 55.476 252.825 55.203 252.123 55.125C250.641 57.543 249.393 60.195 248.379 63.081C247.443 65.967 246.741 68.814 246.273 71.622ZM269.276 100.638C268.574 100.638 268.106 100.404 267.872 99.936C267.638 99.468 267.521 98.961 267.521 98.415V98.181C267.521 93.969 267.833 90.03 268.457 86.364C269.081 82.698 269.666 78.993 270.212 75.249C270.836 71.427 271.148 67.254 271.148 62.73C271.148 61.482 271.07 60.039 270.914 58.401C270.836 56.685 270.563 55.008 270.095 53.37C269.705 51.732 269.081 50.445 268.223 49.509C267.911 49.197 267.755 48.807 267.755 48.339C267.755 47.637 268.067 47.013 268.691 46.467C269.315 45.921 269.978 45.609 270.68 45.531L271.733 45.999C272.669 46.857 273.332 48.378 273.722 50.562C274.112 52.668 274.346 54.813 274.424 56.997C274.502 59.181 274.541 60.897 274.541 62.145C274.541 63.861 274.502 65.577 274.424 67.293C274.346 69.009 274.229 70.764 274.073 72.558C274.463 71.544 275.009 70.257 275.711 68.697C276.413 67.059 277.232 65.46 278.168 63.9C279.182 62.262 280.235 60.897 281.327 59.805C282.497 58.713 283.745 58.167 285.071 58.167C286.397 58.167 287.411 58.908 288.113 60.39C288.815 61.794 289.283 63.549 289.517 65.655C289.829 67.761 290.024 69.789 290.102 71.739C290.18 73.611 290.219 75.015 290.219 75.951C290.687 74.781 291.428 73.104 292.442 70.92C293.534 68.736 294.782 66.357 296.186 63.783C297.668 61.209 299.228 58.752 300.866 56.412C302.504 54.072 304.103 52.161 305.663 50.679C307.223 49.119 308.666 48.339 309.992 48.339C311.084 48.339 311.747 48.924 311.981 50.094C312.293 51.264 312.449 52.239 312.449 53.019C312.449 56.139 312.137 59.298 311.513 62.496C310.967 65.694 310.382 68.931 309.758 72.207C309.212 75.483 308.939 78.798 308.939 82.152C308.939 82.542 308.939 83.4 308.939 84.726C309.017 86.052 309.173 87.3 309.407 88.47C309.719 89.562 310.226 90.108 310.928 90.108C312.098 90.108 313.307 89.523 314.555 88.353C315.803 87.183 316.934 85.857 317.948 84.375C319.04 82.815 319.937 81.45 320.639 80.28C321.419 79.032 321.926 78.408 322.16 78.408C322.472 78.72 322.628 79.11 322.628 79.578C322.628 80.358 322.199 81.528 321.341 83.088C320.483 84.648 319.391 86.247 318.065 87.885C316.817 89.523 315.53 90.927 314.204 92.097C312.878 93.189 311.786 93.735 310.928 93.735C309.446 93.735 308.276 92.994 307.418 91.512C306.638 90.03 306.092 88.353 305.78 86.481C305.546 84.609 305.429 83.166 305.429 82.152C305.429 79.11 305.624 76.107 306.014 73.143C306.404 70.101 306.872 67.098 307.418 64.134C307.73 62.574 308.12 60.936 308.588 59.22C309.134 57.504 309.407 55.866 309.407 54.306C309.407 53.838 309.251 53.37 308.939 52.902L308.705 52.785C308.237 52.785 307.613 53.253 306.833 54.189C306.053 55.047 305.312 55.983 304.61 56.997C303.986 58.011 303.518 58.713 303.206 59.103C300.242 63.315 297.863 67.683 296.069 72.207C294.275 76.653 292.247 81.177 289.985 85.779C289.829 86.091 289.595 86.403 289.283 86.715C289.049 87.027 288.737 87.183 288.347 87.183C287.567 87.183 287.021 86.442 286.709 84.96C286.475 83.4 286.358 81.645 286.358 79.695C286.358 77.901 286.397 76.224 286.475 74.664C286.631 73.026 286.709 71.895 286.709 71.271C286.709 70.959 286.67 70.296 286.592 69.282C286.592 68.268 286.514 67.176 286.358 66.006C286.28 64.836 286.124 63.822 285.89 62.964C285.734 62.106 285.461 61.677 285.071 61.677C284.291 61.677 283.667 61.989 283.199 62.613C282.809 63.237 282.419 63.861 282.029 64.485C279.767 68.307 277.934 72.246 276.53 76.302C275.282 80.046 274.385 83.907 273.839 87.885C273.293 91.785 272.357 95.568 271.031 99.234C270.797 100.17 270.212 100.638 269.276 100.638ZM359.641 103.095C359.251 103.095 358.471 103.056 357.301 102.978C356.131 102.9 354.883 102.744 353.557 102.51C352.309 102.354 351.217 102.12 350.281 101.808C349.345 101.496 348.877 101.067 348.877 100.521C348.877 100.131 349.072 99.819 349.462 99.585C349.93 99.429 350.32 99.351 350.632 99.351C352.192 99.351 353.752 99.585 355.312 100.053C356.872 100.521 358.51 100.755 360.226 100.755C365.608 100.755 371.029 99.741 376.489 97.713C381.949 95.607 387.097 92.721 391.933 89.055C396.847 85.389 401.176 81.216 404.92 76.536C408.742 71.778 411.745 66.747 413.929 61.443C416.113 56.061 417.205 50.64 417.205 45.18C417.205 39.174 415.879 34.455 413.227 31.023C410.575 27.591 407.026 25.134 402.58 23.652C398.212 22.17 393.337 21.429 387.955 21.429C385.615 21.429 382.768 21.663 379.414 22.131C376.138 22.599 372.706 23.34 369.118 24.354C365.608 25.368 362.293 26.694 359.173 28.332C356.053 29.97 353.518 31.959 351.568 34.299C349.696 36.561 348.76 39.252 348.76 42.372C348.76 44.166 349.228 45.492 350.164 46.35C351.178 47.208 352.465 47.832 354.025 48.222C354.181 48.3 354.454 48.378 354.844 48.456C355.234 48.456 355.429 48.612 355.429 48.924C354.961 49.548 354.181 49.86 353.089 49.86C350.671 49.86 348.877 49.158 347.707 47.754C346.459 46.272 345.835 44.361 345.835 42.021C345.835 38.433 346.849 35.274 348.877 32.544C350.983 29.814 353.674 27.552 356.95 25.758C360.304 23.886 363.892 22.365 367.714 21.195C371.614 20.025 375.436 19.206 379.18 18.738C382.924 18.192 386.161 17.919 388.891 17.919C395.209 17.919 400.825 18.699 405.739 20.259C410.731 21.741 414.67 24.393 417.556 28.215C420.442 32.037 421.885 37.497 421.885 44.595C421.885 50.523 420.676 56.373 418.258 62.145C415.84 67.839 412.525 73.143 408.313 78.057C404.101 82.971 399.304 87.339 393.922 91.161C388.618 94.905 383.002 97.83 377.074 99.936C371.224 102.042 365.413 103.095 359.641 103.095ZM373.798 91.98C371.38 91.98 369.508 91.395 368.182 90.225C366.934 89.055 366.037 87.534 365.491 85.662C365.023 83.79 364.789 81.879 364.789 79.929C364.789 76.263 365.14 72.012 365.842 67.176C366.544 62.262 367.597 57.27 369.001 52.2C370.405 47.052 372.082 42.255 374.032 37.809C376.06 33.363 378.361 29.736 380.935 26.928C381.481 26.382 382.144 26.109 382.924 26.109C383.47 26.109 384.016 26.226 384.562 26.46C385.186 26.694 385.537 27.123 385.615 27.747L385.264 28.449C384.562 29.853 383.704 31.179 382.69 32.427C381.676 33.597 380.779 34.884 379.999 36.288C376.333 42.528 373.369 49.353 371.107 56.763C368.845 64.095 367.714 71.388 367.714 78.642C367.714 80.826 367.909 83.01 368.299 85.194C368.767 87.378 370.21 88.899 372.628 89.757C373.018 89.835 373.408 89.991 373.798 90.225C374.266 90.459 374.5 90.81 374.5 91.278C374.5 91.746 374.266 91.98 373.798 91.98ZM437.327 46.233C436.781 46.233 436.274 46.116 435.806 45.882C435.338 45.57 435.104 45.141 435.104 44.595C435.104 43.971 435.377 43.035 435.923 41.787C436.547 40.539 437.288 39.252 438.146 37.926C439.004 36.6 439.901 35.469 440.837 34.533C441.773 33.597 442.631 33.129 443.411 33.129C444.035 33.129 444.347 33.48 444.347 34.182C444.347 34.728 444.191 35.196 443.879 35.586C443.567 35.898 443.216 36.171 442.826 36.405C442.202 36.795 441.656 37.536 441.188 38.628C440.798 39.72 440.447 40.851 440.135 42.021C439.901 43.191 439.667 44.127 439.433 44.829C439.199 45.765 438.497 46.233 437.327 46.233ZM418.139 144.045C416.657 144.045 415.565 143.343 414.863 141.939C414.161 140.535 413.732 138.936 413.576 137.142C413.342 135.426 413.225 134.061 413.225 133.047C413.225 123.531 415.175 114.405 419.075 105.669C422.975 96.933 428.045 89.094 434.285 82.152L434.636 81.684C434.246 76.692 433.661 71.817 432.881 67.059C432.647 65.967 432.296 64.68 431.828 63.198C431.36 61.638 431.126 60.312 431.126 59.22C431.126 58.362 431.438 57.66 432.062 57.114C432.686 56.49 433.427 56.178 434.285 56.178C434.831 56.178 435.299 56.88 435.689 58.284C436.157 59.688 436.547 61.443 436.859 63.549C437.171 65.655 437.405 67.8 437.561 69.984C437.795 72.168 437.951 74.118 438.029 75.834C438.185 77.55 438.263 78.681 438.263 79.227C439.355 78.681 440.447 78.174 441.539 77.706C442.709 77.16 443.879 76.887 445.049 76.887C445.283 76.887 445.556 76.926 445.868 77.004C446.18 77.082 446.336 77.316 446.336 77.706C446.336 77.94 445.829 78.291 444.815 78.759C443.801 79.227 442.67 79.773 441.422 80.397C440.174 80.943 439.16 81.528 438.38 82.152L438.497 88.119C438.575 90.615 438.536 93.15 438.38 95.724C438.224 98.22 438.029 100.716 437.795 103.212C437.639 104.85 437.171 107.19 436.391 110.232C435.689 113.352 434.753 116.706 433.583 120.294C432.413 123.96 431.048 127.47 429.488 130.824C428.006 134.256 426.368 137.142 424.574 139.482C422.858 141.9 421.064 143.382 419.192 143.928C418.958 144.006 418.607 144.045 418.139 144.045ZM418.373 140.535C418.841 140.535 419.465 140.223 420.245 139.599C421.025 138.975 421.571 138.507 421.883 138.195C423.677 136.167 425.276 133.671 426.68 130.707C428.162 127.821 429.41 124.701 430.424 121.347C431.438 118.071 432.257 114.795 432.881 111.519C433.583 108.243 434.051 105.318 434.285 102.744C434.519 100.56 434.714 98.415 434.87 96.309C435.026 94.125 435.065 91.98 434.987 89.874L434.87 85.311C431.828 88.197 429.176 91.629 426.914 95.607C424.652 99.585 422.78 103.797 421.298 108.243C419.738 112.767 418.607 117.291 417.905 121.815C417.125 126.339 416.735 130.629 416.735 134.685C416.735 135.231 416.774 135.972 416.852 136.908C416.93 137.844 417.086 138.663 417.32 139.365C417.554 140.145 417.905 140.535 418.373 140.535ZM456.696 99C454.59 99 452.952 98.064 451.782 96.192C450.69 94.32 449.949 92.058 449.559 89.406C449.169 86.676 448.974 84.141 448.974 81.801C448.974 80.709 448.974 79.734 448.974 78.876C449.052 77.94 449.13 77.16 449.208 76.536H448.857C447.921 76.536 447.453 76.185 447.453 75.483C447.609 75.093 447.882 74.781 448.272 74.547C448.74 74.235 449.169 74.04 449.559 73.962C449.949 70.53 450.69 67.02 451.782 63.432C452.874 59.844 454.356 56.607 456.228 53.721V53.019C456.228 52.239 456.696 51.771 457.632 51.615C458.022 51.225 458.412 50.796 458.802 50.328C459.27 49.782 459.777 49.509 460.323 49.509C460.947 49.509 461.415 49.782 461.727 50.328C462.117 50.796 462.156 51.303 461.844 51.849C463.326 52.161 464.652 52.785 465.822 53.721C467.07 54.579 467.694 55.866 467.694 57.582C467.694 59.844 466.836 62.184 465.12 64.602C463.482 66.942 461.493 69.087 459.153 71.037C456.891 72.909 454.824 74.313 452.952 75.249C452.718 77.121 452.562 79.032 452.484 80.982C452.484 82.854 452.484 84.726 452.484 86.598C452.484 87.534 452.523 88.704 452.601 90.108C452.757 91.512 453.108 92.76 453.654 93.852C454.278 94.944 455.292 95.49 456.696 95.49C458.178 95.49 459.621 94.827 461.025 93.501C462.507 92.175 463.911 90.498 465.237 88.47C466.641 86.364 467.928 84.18 469.098 81.918C470.268 79.656 471.282 77.511 472.14 75.483C472.998 73.455 473.622 71.895 474.012 70.803C474.168 70.413 474.363 70.062 474.597 69.75C474.831 69.36 475.182 69.165 475.65 69.165C476.274 69.165 476.586 69.555 476.586 70.335C476.586 71.583 476.157 73.377 475.299 75.717C474.441 77.979 473.271 80.436 471.789 83.088C470.385 85.74 468.786 88.275 466.992 90.693C465.276 93.111 463.521 95.1 461.727 96.66C459.933 98.22 458.256 99 456.696 99ZM453.537 71.622C455.019 70.686 456.501 69.516 457.983 68.112C459.465 66.708 460.713 65.109 461.727 63.315C462.741 61.521 463.248 59.727 463.248 57.933C463.248 56.997 462.78 56.334 461.844 55.944C460.908 55.476 460.089 55.203 459.387 55.125C457.905 57.543 456.657 60.195 455.643 63.081C454.707 65.967 454.005 68.814 453.537 71.622ZM504.035 98.649C502.553 98.649 501.305 97.947 500.291 96.543C499.355 95.061 498.614 93.228 498.068 91.044C497.6 88.86 497.249 86.598 497.015 84.258C496.859 81.84 496.781 79.695 496.781 77.823C496.781 76.965 496.781 76.224 496.781 75.6C496.781 74.898 496.82 74.313 496.898 73.845C496.196 75.327 495.221 77.394 493.973 80.046C492.803 82.698 491.438 85.35 489.878 88.002C488.318 90.654 486.641 92.916 484.847 94.788C483.053 96.66 481.22 97.596 479.348 97.596C476.93 97.596 475.292 96.66 474.434 94.788C473.654 92.838 473.264 90.888 473.264 88.938C473.264 86.286 473.654 83.244 474.434 79.812C475.292 76.38 476.345 73.494 477.593 71.154C478.061 70.218 478.763 68.97 479.699 67.41C480.635 65.85 481.688 64.29 482.858 62.73C484.106 61.092 485.354 59.727 486.602 58.635C487.928 57.543 489.176 56.997 490.346 56.997C492.062 56.997 493.232 57.621 493.856 58.869C494.558 60.039 494.909 61.365 494.909 62.847C494.909 63.861 494.324 64.368 493.154 64.368C492.608 64.368 492.296 64.056 492.218 63.432C492.218 62.73 492.14 62.067 491.984 61.443C491.828 60.819 491.282 60.507 490.346 60.507C488.942 60.507 487.577 61.287 486.251 62.847C484.925 64.407 483.677 66.435 482.507 68.931C481.415 71.349 480.44 73.884 479.582 76.536C478.724 79.188 478.061 81.645 477.593 83.907C477.125 86.169 476.891 87.885 476.891 89.055C476.891 89.913 477.008 91.044 477.242 92.448C477.554 93.774 478.334 94.437 479.582 94.437C480.284 94.437 481.103 94.008 482.039 93.15C483.053 92.292 484.028 91.239 484.964 89.991C485.978 88.665 486.875 87.417 487.655 86.247C488.435 85.077 488.981 84.219 489.293 83.673C491.477 79.383 493.193 75.444 494.441 71.856C495.689 68.19 496.703 64.641 497.483 61.209C498.263 57.777 499.004 54.189 499.706 50.445C500.408 46.701 501.266 42.606 502.28 38.16C502.436 37.458 502.748 36.288 503.216 34.65C503.762 33.012 504.425 31.53 505.205 30.204C506.063 28.8 506.999 28.098 508.013 28.098C508.793 28.098 509.261 28.488 509.417 29.268C509.651 30.048 509.768 30.711 509.768 31.257C509.768 32.505 509.495 34.338 508.949 36.756C508.481 39.096 507.896 41.631 507.194 44.361C506.492 47.091 505.751 49.665 504.971 52.083C504.269 54.423 503.684 56.217 503.216 57.465C502.904 58.245 502.553 59.103 502.163 60.039C501.773 60.975 501.5 61.872 501.344 62.73C500.798 65.148 500.447 67.839 500.291 70.803C500.213 73.767 500.174 76.536 500.174 79.11C500.174 79.734 500.174 80.943 500.174 82.737C500.252 84.453 500.408 86.325 500.642 88.353C500.954 90.303 501.344 91.98 501.812 93.384C502.358 94.788 503.099 95.49 504.035 95.49C505.127 95.49 506.18 94.749 507.194 93.267C508.286 91.707 509.3 89.952 510.236 88.002C511.25 85.974 512.147 84.219 512.927 82.737C513.707 81.177 514.331 80.397 514.799 80.397C515.579 80.397 515.969 80.865 515.969 81.801C515.969 82.503 515.501 83.79 514.565 85.662C513.707 87.456 512.576 89.367 511.172 91.395C509.846 93.345 508.52 95.061 507.194 96.543C505.946 97.947 504.893 98.649 504.035 98.649ZM544.139 98.649C542.657 98.649 541.409 97.947 540.395 96.543C539.459 95.061 538.718 93.228 538.172 91.044C537.704 88.86 537.353 86.598 537.119 84.258C536.963 81.84 536.885 79.695 536.885 77.823C536.885 76.965 536.885 76.224 536.885 75.6C536.885 74.898 536.924 74.313 537.002 73.845C536.3 75.327 535.325 77.394 534.077 80.046C532.907 82.698 531.542 85.35 529.982 88.002C528.422 90.654 526.745 92.916 524.951 94.788C523.157 96.66 521.324 97.596 519.452 97.596C517.034 97.596 515.396 96.66 514.538 94.788C513.758 92.838 513.368 90.888 513.368 88.938C513.368 86.286 513.758 83.244 514.538 79.812C515.396 76.38 516.449 73.494 517.697 71.154C518.165 70.218 518.867 68.97 519.803 67.41C520.739 65.85 521.792 64.29 522.962 62.73C524.21 61.092 525.458 59.727 526.706 58.635C528.032 57.543 529.28 56.997 530.45 56.997C532.166 56.997 533.336 57.621 533.96 58.869C534.662 60.039 535.013 61.365 535.013 62.847C535.013 63.861 534.428 64.368 533.258 64.368C532.712 64.368 532.4 64.056 532.322 63.432C532.322 62.73 532.244 62.067 532.088 61.443C531.932 60.819 531.386 60.507 530.45 60.507C529.046 60.507 527.681 61.287 526.355 62.847C525.029 64.407 523.781 66.435 522.611 68.931C521.519 71.349 520.544 73.884 519.686 76.536C518.828 79.188 518.165 81.645 517.697 83.907C517.229 86.169 516.995 87.885 516.995 89.055C516.995 89.913 517.112 91.044 517.346 92.448C517.658 93.774 518.438 94.437 519.686 94.437C520.388 94.437 521.207 94.008 522.143 93.15C523.157 92.292 524.132 91.239 525.068 89.991C526.082 88.665 526.979 87.417 527.759 86.247C528.539 85.077 529.085 84.219 529.397 83.673C531.581 79.383 533.297 75.444 534.545 71.856C535.793 68.19 536.807 64.641 537.587 61.209C538.367 57.777 539.108 54.189 539.81 50.445C540.512 46.701 541.37 42.606 542.384 38.16C542.54 37.458 542.852 36.288 543.32 34.65C543.866 33.012 544.529 31.53 545.309 30.204C546.167 28.8 547.103 28.098 548.117 28.098C548.897 28.098 549.365 28.488 549.521 29.268C549.755 30.048 549.872 30.711 549.872 31.257C549.872 32.505 549.599 34.338 549.053 36.756C548.585 39.096 548 41.631 547.298 44.361C546.596 47.091 545.855 49.665 545.075 52.083C544.373 54.423 543.788 56.217 543.32 57.465C543.008 58.245 542.657 59.103 542.267 60.039C541.877 60.975 541.604 61.872 541.448 62.73C540.902 65.148 540.551 67.839 540.395 70.803C540.317 73.767 540.278 76.536 540.278 79.11C540.278 79.734 540.278 80.943 540.278 82.737C540.356 84.453 540.512 86.325 540.746 88.353C541.058 90.303 541.448 91.98 541.916 93.384C542.462 94.788 543.203 95.49 544.139 95.49C545.231 95.49 546.284 94.749 547.298 93.267C548.39 91.707 549.404 89.952 550.34 88.002C551.354 85.974 552.251 84.219 553.031 82.737C553.811 81.177 554.435 80.397 554.903 80.397C555.683 80.397 556.073 80.865 556.073 81.801C556.073 82.503 555.605 83.79 554.669 85.662C553.811 87.456 552.68 89.367 551.276 91.395C549.95 93.345 548.624 95.061 547.298 96.543C546.05 97.947 544.997 98.649 544.139 98.649ZM557.802 102.276C556.476 102.276 555.501 101.613 554.877 100.287C554.253 99.039 553.863 97.596 553.707 95.958C553.551 94.32 553.473 93.072 553.473 92.214C553.473 89.25 553.746 86.13 554.292 82.854C554.838 79.5 555.54 76.38 556.398 73.494C556.788 72.168 557.49 70.257 558.504 67.761C559.518 65.187 560.727 62.574 562.131 59.922C563.613 57.27 565.173 55.047 566.811 53.253C568.527 51.381 570.243 50.445 571.959 50.445C573.285 50.445 574.728 51.03 576.288 52.2C577.848 53.37 578.628 54.657 578.628 56.061C578.628 56.607 578.433 57.075 578.043 57.465C578.121 57.387 578.316 57.348 578.628 57.348C580.11 57.348 580.851 58.128 580.851 59.688C580.851 61.482 580.578 63.627 580.032 66.123C579.564 68.619 579.057 71.271 578.511 74.079C577.965 76.809 577.692 79.461 577.692 82.035C577.692 82.971 577.77 84.102 577.926 85.428C578.082 86.676 578.433 87.807 578.979 88.821C579.603 89.835 580.578 90.342 581.904 90.342C583.152 90.342 584.478 89.679 585.882 88.353C587.286 87.027 588.651 85.389 589.977 83.439C591.303 81.489 592.551 79.539 593.721 77.589C594.891 75.639 595.866 74.001 596.646 72.675C597.504 71.349 598.089 70.686 598.401 70.686C598.947 70.686 599.22 71.037 599.22 71.739C599.22 72.675 598.791 74.04 597.933 75.834C597.153 77.55 596.1 79.461 594.774 81.567C593.448 83.595 591.966 85.584 590.328 87.534C588.768 89.406 587.169 90.966 585.531 92.214C583.971 93.384 582.567 93.969 581.319 93.969C579.291 93.969 577.731 93.15 576.639 91.512C575.625 89.796 574.923 87.768 574.533 85.428C574.221 83.088 574.065 80.904 574.065 78.876C574.065 78.174 574.065 77.511 574.065 76.887C574.065 76.263 574.104 75.717 574.182 75.249C573.714 76.341 573.051 77.979 572.193 80.163C571.335 82.269 570.321 84.609 569.151 87.183C568.059 89.679 566.85 92.097 565.524 94.437C564.276 96.699 562.989 98.571 561.663 100.053C560.337 101.535 559.05 102.276 557.802 102.276ZM558.738 97.362C559.752 97.362 560.883 96.426 562.131 94.554C563.379 92.682 564.666 90.303 565.992 87.417C567.396 84.453 568.722 81.294 569.97 77.94C571.218 74.586 572.349 71.427 573.363 68.463C574.455 65.421 575.352 62.925 576.054 60.975C576.756 58.947 577.224 57.855 577.458 57.699L576.756 57.816C576.21 57.816 575.781 57.543 575.469 56.997C575.157 56.373 574.767 55.788 574.299 55.242C573.831 54.696 573.051 54.423 571.959 54.423C570.555 54.423 569.19 55.242 567.864 56.88C566.538 58.518 565.251 60.507 564.003 62.847C562.833 65.109 561.819 67.332 560.961 69.516C560.181 71.7 559.635 73.338 559.323 74.43C557.763 79.812 556.983 85.35 556.983 91.044C556.983 91.356 556.983 92.058 556.983 93.15C557.061 94.164 557.217 95.139 557.451 96.075C557.763 96.933 558.192 97.362 558.738 97.362ZM603.656 53.019C603.11 53.019 602.603 52.902 602.135 52.668C601.667 52.356 601.433 51.927 601.433 51.381C601.433 50.757 601.706 49.821 602.252 48.573C602.798 47.247 603.5 45.921 604.358 44.595C605.216 43.269 606.113 42.138 607.049 41.202C608.063 40.266 608.96 39.798 609.74 39.798C610.364 39.798 610.676 40.188 610.676 40.968C610.676 41.904 610.169 42.645 609.155 43.191C608.531 43.581 607.985 44.322 607.517 45.414C607.127 46.506 606.776 47.637 606.464 48.807C606.23 49.977 605.996 50.913 605.762 51.615C605.528 52.551 604.826 53.019 603.656 53.019ZM601.316 97.83C599.522 97.83 598.196 97.089 597.338 95.607C596.48 94.047 595.934 92.292 595.7 90.342C595.466 88.314 595.349 86.676 595.349 85.428C595.349 84.648 595.427 83.205 595.583 81.099C595.817 78.993 596.09 76.653 596.402 74.079C596.792 71.427 597.221 68.853 597.689 66.357C598.235 63.861 598.859 61.794 599.561 60.156C600.263 58.518 601.004 57.699 601.784 57.699C602.408 57.699 602.954 57.894 603.422 58.284C603.89 58.674 604.124 59.181 604.124 59.805C604.124 60.741 603.851 62.223 603.305 64.251C602.759 66.279 602.096 68.58 601.316 71.154C600.614 73.728 599.951 76.341 599.327 78.993C598.781 81.567 598.508 83.907 598.508 86.013C598.508 86.559 598.547 87.495 598.625 88.821C598.781 90.147 599.054 91.395 599.444 92.565C599.834 93.657 600.458 94.203 601.316 94.203C602.486 94.203 603.773 93.345 605.177 91.629C606.581 89.913 607.985 87.807 609.389 85.311C610.871 82.737 612.236 80.202 613.484 77.706C614.732 75.132 615.785 72.987 616.643 71.271C617.501 69.555 618.086 68.697 618.398 68.697C618.788 68.697 619.022 68.853 619.1 69.165C619.256 69.399 619.334 69.672 619.334 69.984C619.334 70.998 618.905 72.636 618.047 74.898C617.189 77.082 616.058 79.5 614.654 82.152C613.25 84.726 611.729 87.222 610.091 89.64C608.453 91.98 606.854 93.93 605.294 95.49C603.734 97.05 602.408 97.83 601.316 97.83Z" fill="black"/>
</svg>
