<svg width="516" height="219" viewBox="0 0 516 219" fill="none" xmlns="http://www.w3.org/2000/svg">
<path d="M1.9425 197.894C31.264 173.367 56.9045 147.381 78.1774 115.471C80.8558 111.454 83.4665 99.2947 86.098 103.343C88.8405 107.562 87.7904 126.779 88.0781 130.075C89.1039 141.825 88.0721 179.12 100.701 186.756C110.891 192.917 128.168 183.994 136.344 179.826C156.917 169.337 174.211 152.829 194.758 142.698C216.185 132.133 222.604 184.644 228.915 197.77C243.784 228.698 265.656 216.602 291.536 203.34C350.047 173.356 412.714 141.035 462.322 97.4027C493.051 70.3753 507.373 40.6547 514.301 1.86151" stroke="black" stroke-width="3" stroke-linecap="round"/>
</svg>
